<?xml version="1.0" standalone="no"?>
<!DOCTYPE svg PUBLIC "-//W3C//DTD SVG 20010904//EN"
 "http://www.w3.org/TR/2001/REC-SVG-20010904/DTD/svg10.dtd">
<svg version="1.0" xmlns="http://www.w3.org/2000/svg"
 width="1292.000000pt" height="458.000000pt" viewBox="0 0 1292.000000 458.000000"
 preserveAspectRatio="xMidYMid meet">

<g transform="translate(0.000000,458.000000) scale(0.100000,-0.100000)"
fill="#000000" stroke="none">
<path d="M1 3523 c1 -582 5 -1029 9 -993 8 72 67 230 131 348 101 188 281 366
454 448 127 61 208 76 410 80 315 5 509 -36 806 -171 78 -36 143 -65 145 -65
2 0 4 205 4 455 l0 455 375 0 375 0 0 -1376 0 -1377 -294 5 c-365 7 -360 5
-393 118 -12 41 -22 76 -22 78 -1 1 -60 -28 -133 -64 -236 -118 -442 -170
-718 -182 -258 -11 -445 15 -578 80 -115 57 -290 241 -406 428 -30 47 -77 144
-105 215 -29 71 -54 131 -57 134 -2 2 -4 -478 -4 -1067 l0 -1072 6460 0 6460
0 0 2290 0 2290 -6460 0 -6460 0 1 -1057z m8460 350 c1 -115 2 -248 3 -298 1
-49 4 -227 6 -395 1 -168 6 -365 9 -439 l6 -134 270 244 c149 134 329 297 400
361 l130 117 440 0 440 0 -46 -42 c-143 -132 -664 -610 -781 -717 l-137 -124
447 -451 c470 -473 649 -663 635 -676 -17 -16 -90 -20 -433 -25 l-355 -5 -145
137 c-447 423 -872 819 -880 822 -6 2 -10 -47 -11 -125 0 -70 -2 -171 -4 -223
-6 -130 -14 -429 -15 -517 l0 -73 -355 0 -355 0 0 318 c0 174 -2 520 -5 767
-3 248 -7 728 -10 1068 l-4 617 374 0 375 0 1 -207z m-3871 -463 c210 -22 453
-82 607 -151 98 -44 193 -111 262 -184 126 -135 155 -247 161 -610 1 -88 2
-169 3 -180 0 -11 0 -240 -1 -509 l-2 -488 -182 6 c-323 12 -430 21 -470 42
-27 14 -38 39 -53 129 -9 54 -32 95 -53 95 -10 0 -47 -18 -83 -40 -158 -100
-342 -170 -544 -206 -137 -25 -480 -30 -631 -10 -218 29 -425 106 -526 195
-93 83 -140 228 -140 436 0 130 18 239 51 302 27 55 140 157 213 194 132 67
320 96 658 104 113 3 304 7 425 10 344 8 502 33 555 90 35 37 40 119 10 180
-56 115 -280 201 -544 209 -304 10 -526 -82 -606 -250 -17 -35 -42 -71 -55
-80 -31 -20 -110 -25 -438 -27 l-257 -2 6 45 c3 25 12 75 19 111 67 336 493
565 1105 596 63 3 116 6 117 7 7 5 310 -6 393 -14z m7270 -20 c137 -15 200
-34 330 -96 226 -109 411 -257 529 -425 107 -150 127 -210 141 -421 8 -121 7
-159 -5 -218 -8 -39 -15 -102 -15 -139 0 -58 -5 -78 -40 -150 -107 -221 -304
-418 -537 -535 -518 -260 -1224 -208 -1722 126 -156 106 -275 246 -360 429
-69 146 -86 223 -86 384 1 132 3 146 33 235 98 283 288 495 592 662 148 81
334 137 525 157 101 11 489 5 615 -9z m-4389 -39 l24 -19 3 -270 3 -270 -298
-4 c-356 -5 -361 -6 -451 -103 -39 -41 -65 -80 -76 -111 -27 -80 -39 -235 -51
-669 -3 -110 -8 -229 -10 -265 -2 -36 -5 -120 -6 -186 0 -67 -4 -126 -8 -131
-3 -6 -86 -13 -191 -17 -102 -3 -263 -9 -357 -12 l-173 -7 0 1022 0 1021 327
-2 326 -3 23 -125 c13 -68 25 -134 29 -147 5 -21 10 -19 107 44 205 135 418
226 596 256 120 21 156 20 183 -2z"/>
<path d="M4755 2290 c-71 -17 -164 -26 -395 -35 -436 -18 -598 -57 -666 -160
-41 -63 -3 -187 73 -235 83 -53 162 -65 408 -64 332 1 416 23 531 138 91 92
181 269 172 343 -4 35 -27 38 -123 13z"/>
<path d="M11395 2950 c-98 -15 -217 -57 -280 -98 -125 -82 -224 -220 -261
-365 -21 -81 -21 -234 1 -317 53 -203 207 -362 415 -428 87 -28 135 -34 244
-33 223 1 443 108 553 269 68 99 78 147 78 357 -1 161 -3 187 -24 244 -36 104
-101 183 -211 257 -138 93 -347 139 -515 114z"/>
<path d="M1212 2950 c-178 -26 -383 -231 -437 -436 -22 -84 -19 -223 5 -314
12 -41 41 -116 65 -166 34 -71 57 -103 105 -147 104 -97 287 -167 434 -167
251 1 460 156 543 404 25 74 27 94 27 231 -1 135 -4 158 -28 232 -60 184 -180
297 -371 348 -68 18 -262 27 -343 15z"/>
</g>
</svg>
