<?xml version="1.0" standalone="no"?>
<!DOCTYPE svg PUBLIC "-//W3C//DTD SVG 20010904//EN"
 "http://www.w3.org/TR/2001/REC-SVG-20010904/DTD/svg10.dtd">
<svg version="1.0" xmlns="http://www.w3.org/2000/svg"
 width="1292.000000pt" height="458.000000pt" viewBox="0 0 1292.000000 458.000000"
 preserveAspectRatio="xMidYMid meet">

<g transform="translate(0.000000,458.000000) scale(0.100000,-0.100000)"
fill="#000000" stroke="none">
<path d="M1 3523 c1 -892 3 -1046 14 -983 13 79 62 216 113 315 118 231 336
432 552 507 126 44 360 60 555 38 209 -24 340 -61 564 -161 84 -38 155 -69
157 -69 2 0 4 205 4 455 l0 455 375 0 375 0 0 -1377 0 -1376 -296 6 c-366 8
-358 6 -391 117 -12 41 -22 76 -22 77 -1 1 -70 -31 -154 -72 -279 -136 -509
-182 -856 -172 -314 9 -422 48 -587 212 -165 163 -268 316 -344 512 -22 56
-44 125 -49 155 -5 33 -9 -372 -10 -1054 l-1 -1108 6460 0 6460 0 0 2290 0
2290 -6460 0 -6460 0 1 -1057z m8464 -35 c4 -326 10 -658 14 -737 l6 -144 260
235 c143 129 323 292 400 361 l140 126 440 1 440 0 -30 -29 c-42 -40 -523
-481 -748 -686 l-186 -169 447 -451 c484 -487 649 -662 634 -677 -14 -14 -276
-28 -542 -27 l-245 0 -295 276 c-162 152 -394 370 -515 485 l-220 207 -6 -177
c-4 -97 -10 -311 -14 -474 l-7 -298 -353 0 -353 0 -6 968 c-3 532 -8 1155 -12
1385 l-6 417 375 0 374 0 8 -592z m-3843 -83 c248 -29 456 -87 631 -177 132
-68 250 -179 297 -281 61 -129 62 -150 67 -940 l5 -719 -184 7 c-265 9 -423
23 -462 39 -36 15 -38 19 -56 111 -7 33 -19 73 -27 89 -12 24 -19 27 -44 22
-16 -3 -55 -23 -87 -44 -164 -112 -378 -182 -652 -213 -151 -17 -476 -6 -604
20 -187 38 -341 104 -430 182 -90 79 -136 228 -136 437 0 213 30 302 133 399
80 74 163 118 279 148 139 35 280 45 743 55 439 9 547 18 655 50 86 25 112 53
118 124 11 140 -107 235 -353 285 -140 28 -264 36 -366 22 -242 -32 -384 -110
-449 -247 -50 -103 -32 -98 -417 -102 l-333 -3 6 43 c28 192 70 283 179 387
182 172 477 278 880 314 117 11 491 6 607 -8z m7234 -16 c138 -13 200 -31 334
-95 452 -217 720 -586 720 -992 0 -74 -5 -96 -44 -202 -86 -229 -158 -343
-306 -483 -492 -466 -1370 -505 -2010 -90 -204 133 -360 349 -432 598 -33 116
-33 318 1 425 92 294 290 522 601 692 157 86 344 140 545 158 114 10 440 4
591 -11z m-4392 -32 c29 -21 36 -82 36 -329 l0 -237 -297 -4 c-204 -2 -310 -7
-337 -16 -42 -14 -134 -95 -166 -146 -49 -79 -62 -216 -80 -840 -6 -203 -13
-393 -16 -421 l-5 -51 -217 -7 c-119 -3 -281 -9 -359 -13 l-143 -6 0 1022 0
1021 327 -2 327 -3 23 -135 c13 -74 26 -141 28 -147 3 -8 39 9 102 51 239 155
445 240 638 265 102 13 119 12 139 -2z"/>
<path d="M4795 2299 c-65 -20 -168 -30 -453 -44 -400 -20 -547 -51 -626 -134
-69 -72 -40 -209 58 -266 87 -51 150 -60 401 -59 340 2 415 22 531 138 91 92
181 269 172 343 -3 32 -30 39 -83 22z"/>
<path d="M11373 2945 c-169 -30 -275 -86 -378 -196 -106 -114 -158 -253 -158
-419 0 -176 57 -315 179 -437 124 -123 286 -185 484 -185 261 1 503 131 599
321 34 67 51 164 51 301 0 208 -31 306 -126 410 -98 105 -236 177 -394 206
-92 16 -163 16 -257 -1z"/>
<path d="M1206 2949 c-176 -29 -378 -233 -431 -435 -50 -191 23 -469 160 -614
97 -101 294 -180 449 -180 252 1 460 155 543 403 25 75 27 95 27 232 0 136 -3
158 -28 232 -66 201 -206 319 -426 359 -82 15 -217 16 -294 3z"/>
</g>
</svg>
