<?xml version="1.0" standalone="no"?>
<!DOCTYPE svg PUBLIC "-//W3C//DTD SVG 20010904//EN"
 "http://www.w3.org/TR/2001/REC-SVG-20010904/DTD/svg10.dtd">
<svg version="1.0" xmlns="http://www.w3.org/2000/svg"
 width="310.000000pt" height="110.000000pt" viewBox="0 0 310.000000 110.000000"
 preserveAspectRatio="xMidYMid meet">

<g transform="translate(0.000000,110.000000) scale(0.100000,-0.100000)"
fill="#000000" stroke="none">
<path d="M0 858 l1 -243 19 49 c24 62 81 121 137 142 63 24 181 16 256 -19
l57 -26 0 110 0 109 90 0 90 0 0 -330 0 -330 -79 0 c-74 0 -79 1 -85 24 l-6
23 -48 -24 c-87 -43 -235 -50 -300 -14 -36 20 -93 90 -112 137 l-19 49 -1
-257 0 -258 1550 0 1550 0 -1 268 0 267 -20 -53 c-75 -193 -370 -247 -565
-104 -53 39 -94 119 -94 183 0 70 43 145 110 192 77 54 142 70 259 65 87 -3
102 -7 161 -39 68 -37 120 -98 139 -163 6 -21 9 54 10 227 l1 257 -1550 0
-1550 0 0 -242z m2032 -55 l3 -177 96 87 97 87 106 0 106 0 -116 -107 -116
-106 131 -131 c72 -72 131 -135 131 -139 0 -4 -43 -7 -96 -7 l-96 0 -124 116
-123 116 -3 -114 -3 -113 -85 0 -85 0 -3 333 -2 332 90 0 90 0 2 -177z m-842
0 c73 -19 123 -53 143 -96 14 -29 17 -68 17 -216 l0 -182 -82 3 c-74 3 -83 5
-86 23 -7 45 -11 47 -40 27 -107 -76 -356 -70 -416 11 -29 40 -30 145 -1 177
41 47 90 59 230 60 171 1 209 8 213 38 5 35 -24 60 -84 72 -94 20 -182 -7
-199 -60 -6 -18 -16 -20 -92 -20 l-86 0 6 37 c12 73 100 127 229 141 90 10
176 5 248 -15z m610 -63 l0 -70 -78 0 c-71 0 -81 -2 -103 -26 -23 -24 -24 -34
-29 -177 l-5 -152 -87 -3 -88 -3 0 246 0 245 79 0 79 0 6 -36 7 -36 27 18 c60
39 117 61 170 63 21 1 22 -3 22 -69z"/>
<path d="M1140 549 c-14 -4 -59 -7 -100 -8 -130 -2 -178 -28 -150 -80 13 -25
61 -35 145 -29 54 3 69 8 94 32 26 25 50 82 39 90 -1 2 -14 -1 -28 -5z"/>
<path d="M239 683 c-60 -51 -73 -117 -38 -191 17 -35 32 -49 67 -64 102 -46
202 21 202 135 0 94 -52 147 -143 147 -46 0 -61 -5 -88 -27z"/>
<path d="M2680 692 c-50 -25 -80 -75 -80 -132 0 -87 67 -150 160 -150 54 0
106 25 134 63 16 21 21 44 21 87 0 43 -5 66 -21 87 -28 38 -80 63 -134 63 -25
0 -61 -8 -80 -18z"/>
</g>
</svg>
