<svg width="310" height="110" viewBox="0 0 310 110" fill="none" xmlns="http://www.w3.org/2000/svg">
<g clip-path="url(#clip0_3_8)">
<mask id="mask0_3_8" style="mask-type:luminance" maskUnits="userSpaceOnUse" x="0" y="0" width="310" height="110">
<path d="M310 0H0V110H310V0Z" fill="white"/>
</mask>
<g mask="url(#mask0_3_8)">
<path d="M47.4525 12.0396H65.0025V78.3696H49.2525L48.1725 72.6096C42.9525 77.3496 34.9125 79.6296 24.0525 79.4496C19.4325 79.4496 15.3225 78.3096 11.7225 76.0296C8.12253 73.6896 5.30253 70.5396 3.26253 66.5796C1.28253 62.5596 0.262527 58.0896 0.202527 53.1696V52.9896V52.7196C0.262527 48.4596 1.28253 44.4096 3.26253 40.5696C5.24253 36.7296 8.03253 33.6396 11.6325 31.2996C15.2325 28.8996 19.3725 27.6996 24.0525 27.6996C34.3725 27.6996 42.1725 30.1296 47.4525 34.9896V12.0396ZM33.1425 68.7396C35.9025 68.7396 38.3625 68.0496 40.5225 66.6696C42.7425 65.2896 44.4525 63.4596 45.6525 61.1796C46.8525 58.8996 47.4525 56.4696 47.4525 53.8896V53.7996C47.4525 49.2996 46.1325 45.6396 43.4925 42.8196C40.8525 39.9396 37.4025 38.4996 33.1425 38.4996C29.9025 38.4996 27.1425 39.2196 24.8625 40.6596C22.6425 42.0396 20.9625 43.8396 19.8225 46.0596C18.6825 48.2796 18.0825 50.5896 18.0225 52.9896C18.0825 55.7496 18.6525 58.3296 19.7325 60.7296C20.8725 63.1296 22.5825 65.0796 24.8625 66.5796C27.1425 68.0196 29.9025 68.7396 33.1425 68.7396ZM102.932 27.3396C111.212 27.3396 118.622 28.7796 125.162 31.6596C131.702 34.5396 134.972 39.6096 134.972 46.8696V78.5496H118.592L117.152 71.0796V70.6296C115.772 73.3896 112.592 75.5496 107.612 77.1096C102.692 78.6696 97.3219 79.4496 91.5019 79.4496C86.8219 79.4496 82.0819 78.4896 77.2819 76.5696C72.4819 74.5896 70.0819 70.3596 70.0819 63.8796C70.0819 57.6996 72.1219 53.6196 76.2019 51.6396C80.3419 49.6596 84.7819 48.6696 89.5219 48.6696C98.7019 48.6696 105.062 48.6096 108.602 48.4896C112.142 48.3096 114.452 47.9796 115.532 47.4996C116.672 47.0196 117.272 46.1496 117.332 44.8896V43.8996C117.272 41.7996 115.772 40.1796 112.832 39.0396C109.952 37.8396 106.622 37.2396 102.842 37.2396C98.7619 37.2396 95.2819 37.9296 92.4019 39.3096C89.5819 40.6296 88.1719 42.6996 88.1719 45.5196H70.6219C70.6219 40.8996 72.3619 37.2396 75.8419 34.5396C79.3819 31.8396 83.5819 29.9796 88.4419 28.9596C93.3619 27.8796 98.1919 27.3396 102.932 27.3396ZM117.242 54.0696C114.362 55.3896 109.952 56.0496 104.012 56.0496C99.9919 56.0496 96.8419 56.1996 94.5619 56.4996C92.3419 56.7996 90.6919 57.3396 89.6119 58.1196C88.5919 58.8396 88.0519 59.9196 87.9919 61.3596C88.1719 63.3396 89.1919 64.8396 91.0519 65.8596C92.9719 66.8796 96.1819 67.3896 100.682 67.3896C106.622 67.3896 110.852 66.0996 113.372 63.5196C115.952 60.9396 117.242 57.8196 117.242 54.1596V54.0696ZM158.225 37.6896C162.905 32.5896 170.255 29.5596 180.275 28.5996V42.6396H169.025C164.885 42.6396 162.065 44.0796 160.565 46.9596C159.125 49.8396 158.405 53.7396 158.405 58.6596V78.5496H140.855V29.4996H156.515L158.225 37.6896ZM220.509 51.4596L247.779 78.5496H226.899L202.779 55.1496V78.5496H185.229V11.9496H202.779V47.9496L223.389 29.4996H244.629L220.509 51.4596ZM276.278 27.4296C282.578 27.4296 288.248 28.5696 293.288 30.8496C298.328 33.1296 302.258 36.3096 305.078 40.3896C307.958 44.4096 309.398 48.9396 309.398 53.9796C309.398 58.9596 307.958 63.4896 305.078 67.5696C302.258 71.5896 298.328 74.7396 293.288 77.0196C288.248 79.2996 282.578 80.4396 276.278 80.4396C270.218 80.4396 264.548 79.2996 259.268 77.0196C253.988 74.6796 249.758 71.4996 246.578 67.4796C243.458 63.3996 241.898 58.8996 241.898 53.9796C241.898 48.9996 243.458 44.4996 246.578 40.4796C249.758 36.3996 253.988 33.2196 259.268 30.9396C264.548 28.5996 270.218 27.4296 276.278 27.4296ZM276.278 69.0996C280.598 69.0996 284.288 67.8096 287.348 65.2296C290.408 62.6496 291.938 58.8996 291.938 53.9796C291.938 48.9996 290.408 45.2196 287.348 42.6396C284.288 40.0596 280.598 38.7696 276.278 38.7696C273.518 38.7696 270.848 39.3396 268.268 40.4796C265.748 41.5596 263.678 43.2396 262.058 45.5196C260.438 47.7996 259.628 50.6196 259.628 53.9796C259.628 57.2796 260.438 60.0696 262.058 62.3496C263.678 64.6296 265.748 66.3396 268.268 67.4796C270.848 68.5596 273.518 69.0996 276.278 69.0996Z" fill="black"/>
</g>
</g>
<defs>
<clipPath id="clip0_3_8">
<rect width="310" height="110" fill="white"/>
</clipPath>
</defs>
</svg>
