<?xml version="1.0" standalone="no"?>
<!DOCTYPE svg PUBLIC "-//W3C//DTD SVG 20010904//EN"
 "http://www.w3.org/TR/2001/REC-SVG-20010904/DTD/svg10.dtd">
<svg version="1.0" xmlns="http://www.w3.org/2000/svg"
 width="1286.000000pt" height="458.000000pt" viewBox="0 0 1286.000000 458.000000"
 preserveAspectRatio="xMidYMid meet">

<g transform="translate(0.000000,458.000000) scale(0.100000,-0.100000)"
fill="#000000" stroke="none">
<path d="M0 3598 c0 -540 2 -979 4 -977 2 2 25 57 51 121 126 316 381 562 660
640 72 20 104 22 305 22 315 0 460 -29 720 -146 74 -33 150 -66 168 -74 l32
-14 0 455 0 455 375 0 375 0 0 -1375 0 -1375 -252 0 c-272 0 -369 9 -399 36
-18 16 -28 41 -49 121 l-10 42 -163 -79 c-118 -59 -193 -88 -277 -110 -366
-94 -757 -88 -980 17 -63 30 -93 54 -191 152 -145 146 -251 302 -320 469 l-48
117 -1 -1047 0 -1048 6430 0 6430 0 0 1063 -1 1062 -38 -98 c-47 -118 -102
-212 -181 -310 -172 -215 -471 -382 -797 -448 -152 -30 -426 -37 -583 -15
-392 57 -753 232 -947 460 -104 122 -193 302 -228 460 -24 107 -17 291 15 391
75 236 241 448 470 601 317 211 600 268 1159 234 216 -13 308 -36 456 -110
166 -84 276 -161 381 -265 131 -131 222 -268 274 -415 l19 -55 1 1013 0 1012
-6430 0 -6430 0 0 -982z m8444 85 c3 -219 10 -550 14 -735 l7 -337 400 360
399 359 438 0 c241 0 438 -2 438 -4 0 -4 -432 -402 -766 -707 l-192 -174 472
-475 c443 -446 616 -628 616 -649 0 -17 -71 -22 -430 -27 l-365 -6 -200 188
c-110 103 -339 318 -509 478 -169 160 -312 292 -316 294 -4 1 -10 -134 -14
-300 -3 -167 -9 -378 -13 -470 l-6 -168 -352 0 -352 0 -7 642 c-3 354 -9 977
-12 1386 l-7 742 375 0 376 0 6 -397z m-3979 -263 c287 -20 548 -81 729 -170
227 -110 345 -246 382 -437 21 -111 33 -482 34 -1040 l0 -483 -82 0 c-148 1
-487 20 -536 31 -60 13 -79 31 -87 82 -11 75 -35 145 -50 151 -21 8 -39 0
-135 -60 -189 -119 -421 -184 -729 -204 -396 -27 -782 62 -944 218 -159 152
-183 606 -41 786 38 48 129 118 199 150 66 32 189 62 310 76 50 6 281 15 515
20 523 11 658 24 753 72 87 43 89 168 4 256 -98 103 -393 173 -637 151 -241
-21 -412 -112 -474 -253 -13 -30 -36 -62 -51 -72 -32 -21 -201 -33 -497 -33
-182 -1 -198 0 -198 17 0 63 35 205 66 269 70 144 238 275 461 359 247 93 654
139 1008 114z m2991 -71 c18 -19 19 -42 22 -290 l3 -269 -253 0 c-354 0 -411
-12 -495 -103 -53 -58 -79 -108 -92 -183 -15 -82 -28 -328 -42 -795 l-12 -396
-151 -6 c-83 -4 -247 -10 -363 -13 l-213 -7 0 1021 0 1022 328 0 328 0 17
-102 c10 -57 22 -124 28 -150 l10 -47 107 71 c253 166 502 260 713 267 35 1
50 -4 65 -20z"/>
<path d="M4765 2294 c-73 -20 -211 -33 -475 -43 -378 -16 -545 -57 -607 -150
-41 -61 -21 -165 43 -224 73 -68 274 -97 546 -79 207 14 275 30 348 81 100 69
203 225 232 349 19 84 7 92 -87 66z"/>
<path d="M1210 2949 c-89 -11 -152 -40 -236 -108 -213 -173 -284 -425 -195
-691 60 -179 137 -278 268 -343 263 -133 515 -108 703 69 76 73 136 174 166
284 25 89 25 290 1 380 -57 210 -194 350 -388 394 -86 20 -227 27 -319 15z"/>
<path d="M11390 2949 c-168 -22 -315 -93 -412 -198 -105 -115 -158 -255 -158
-421 0 -363 273 -620 660 -620 221 0 420 89 548 243 79 96 108 226 98 432 -9
196 -39 271 -148 378 -144 139 -381 214 -588 186z"/>
</g>
</svg>
